<?xml version="1.0" encoding="UTF-8" standalone="no"?>
<svg
   xmlns:dc="http://purl.org/dc/elements/1.1/"
   xmlns:cc="http://creativecommons.org/ns#"
   xmlns:rdf="http://www.w3.org/1999/02/22-rdf-syntax-ns#"
   xmlns:svg="http://www.w3.org/2000/svg"
   xmlns="http://www.w3.org/2000/svg"
   viewBox="0 0 3598.1121 2570.0801"
   height="2570.0801"
   width="3598.1121"
   xml:space="preserve"
   id="svg2"
   version="1.1"><metadata
     id="metadata8"><rdf:RDF><cc:Work
         rdf:about=""><dc:format>image/svg+xml</dc:format><dc:type
           rdf:resource="http://purl.org/dc/dcmitype/StillImage" /></cc:Work></rdf:RDF></metadata><defs
     id="defs6" /><g
     transform="matrix(1.3333333,0,0,-1.3333333,0,2570.08)"
     id="g10"><g
       id="g12"><g
         id="g14"><g
           id="g16"><path
             id="path18"
             style="fill:#ffffff;fill-opacity:1;fill-rule:nonzero;stroke:none"
             d="M 0,0 V 1927.5847 H 2698.6186 V 0 Z" /></g><g
           id="g20"><g
             transform="translate(51.494,1879.711)"
             id="g22"><g
               id="g24"><g
                 transform="translate(-51.494,-1879.711)"
                 id="g26"><text
                   id="text30"
                   style="font-variant:normal;font-weight:normal;font-size:9.96259975px;font-family:CMR10;-inkscape-font-specification:CMR10;writing-mode:lr-tb;fill:#000000;fill-opacity:1;fill-rule:nonzero;stroke:none"
                   transform="matrix(1,0,0,-1,52.198,1891.666)"><tspan
                     id="tspan28"
                     y="0"
                     x="0 5.5352206 10.516521 14.390976 18.26543 22.69281 26.595161 35.447926">pattern6</tspan></text>
<text
                   id="text34"
                   style="font-variant:normal;font-weight:normal;font-size:9.96259975px;font-family:CMSY10;-inkscape-font-specification:CMSY10;writing-mode:lr-tb;fill:#000000;fill-opacity:1;fill-rule:nonzero;stroke:none"
                   transform="matrix(1,0,0,-1,94.844,1891.666)"><tspan
                     id="tspan32"
                     y="0"
                     x="0">×</tspan></text>
<text
                   id="text38"
                   style="font-variant:normal;font-weight:normal;font-size:9.96259975px;font-family:CMR10;-inkscape-font-specification:CMR10;writing-mode:lr-tb;fill:#000000;fill-opacity:1;fill-rule:nonzero;stroke:none"
                   transform="matrix(1,0,0,-1,104.806,1891.666)"><tspan
                     id="tspan36"
                     y="0"
                     x="0 4.9812999 9.9625998">4/6</tspan></text>
<text
                   id="text42"
                   style="font-variant:normal;font-weight:normal;font-size:9.96259975px;font-family:CMMI10;-inkscape-font-specification:CMMI10;writing-mode:lr-tb;fill:#000000;fill-opacity:1;fill-rule:nonzero;stroke:none"
                   transform="matrix(1,0,0,-1,119.75,1891.666)"><tspan
                     id="tspan40"
                     y="0"
                     x="0">.</tspan></text>
<text
                   id="text46"
                   style="font-variant:normal;font-weight:normal;font-size:9.96259975px;font-family:CMR10;-inkscape-font-specification:CMR10;writing-mode:lr-tb;fill:#000000;fill-opacity:1;fill-rule:nonzero;stroke:none"
                   transform="matrix(1,0,0,-1,122.518,1891.666)"><tspan
                     id="tspan44"
                     y="0"
                     x="0">8</tspan></text>
<text
                   id="text50"
                   style="font-variant:normal;font-weight:normal;font-size:9.96259975px;font-family:CMMI10;-inkscape-font-specification:CMMI10;writing-mode:lr-tb;fill:#000000;fill-opacity:1;fill-rule:nonzero;stroke:none"
                   transform="matrix(1,0,0,-1,127.499,1891.666)"><tspan
                     id="tspan48"
                     y="0"
                     x="0 4.3118134">cm</tspan></text>
<text
                   id="text54"
                   style="font-variant:normal;font-weight:normal;font-size:9.96259975px;font-family:CMR10;-inkscape-font-specification:CMR10;writing-mode:lr-tb;fill:#000000;fill-opacity:1;fill-rule:nonzero;stroke:none"
                   transform="matrix(1,0,0,-1,51.494,1879.711)"><tspan
                     id="tspan52"
                     y="0"
                     x="0 3.8744552 8.8557549 12.73021 17.71151 23.796667 28.777966">total95</tspan></text>
<text
                   id="text58"
                   style="font-variant:normal;font-weight:normal;font-size:9.96259975px;font-family:CMMI10;-inkscape-font-specification:CMMI10;writing-mode:lr-tb;fill:#000000;fill-opacity:1;fill-rule:nonzero;stroke:none"
                   transform="matrix(1,0,0,-1,85.256,1879.711)"><tspan
                     id="tspan56"
                     y="0"
                     x="0">.</tspan></text>
<text
                   id="text62"
                   style="font-variant:normal;font-weight:normal;font-size:9.96259975px;font-family:CMR10;-inkscape-font-specification:CMR10;writing-mode:lr-tb;fill:#000000;fill-opacity:1;fill-rule:nonzero;stroke:none"
                   transform="matrix(1,0,0,-1,88.024,1879.711)"><tspan
                     id="tspan60"
                     y="0"
                     x="0">2</tspan></text>
<text
                   id="text66"
                   style="font-variant:normal;font-weight:normal;font-size:9.96259975px;font-family:CMMI10;-inkscape-font-specification:CMMI10;writing-mode:lr-tb;fill:#000000;fill-opacity:1;fill-rule:nonzero;stroke:none"
                   transform="matrix(1,0,0,-1,93.005,1879.711)"><tspan
                     id="tspan64"
                     y="0"
                     x="0 4.3118134">cm</tspan></text>
<text
                   id="text70"
                   style="font-variant:normal;font-weight:normal;font-size:9.96259975px;font-family:CMSY10;-inkscape-font-specification:CMSY10;writing-mode:lr-tb;fill:#000000;fill-opacity:1;fill-rule:nonzero;stroke:none"
                   transform="matrix(1,0,0,-1,108.278,1879.711)"><tspan
                     id="tspan68"
                     y="0"
                     x="0">×</tspan></text>
<text
                   id="text74"
                   style="font-variant:normal;font-weight:normal;font-size:9.96259975px;font-family:CMR10;-inkscape-font-specification:CMR10;writing-mode:lr-tb;fill:#000000;fill-opacity:1;fill-rule:nonzero;stroke:none"
                   transform="matrix(1,0,0,-1,118.24,1879.711)"><tspan
                     id="tspan72"
                     y="0"
                     x="0 4.9812999">68</tspan></text>
<text
                   id="text78"
                   style="font-variant:normal;font-weight:normal;font-size:9.96259975px;font-family:CMMI10;-inkscape-font-specification:CMMI10;writing-mode:lr-tb;fill:#000000;fill-opacity:1;fill-rule:nonzero;stroke:none"
                   transform="matrix(1,0,0,-1,128.203,1879.711)"><tspan
                     id="tspan76"
                     y="0"
                     x="0 4.3118134">cm</tspan></text>
<g
                   transform="translate(51.494,1879.711)"
                   id="g80" /></g></g><g
               transform="translate(-51.494,-1879.711)"
               id="g82" /></g></g><g
           id="g84"><g
             id="g86"><path
               id="path88"
               style="fill:#000000;fill-opacity:1;fill-rule:nonzero;stroke:#000000;stroke-width:0.3985;stroke-linecap:butt;stroke-linejoin:miter;stroke-miterlimit:10;stroke-dasharray:none;stroke-opacity:1"
               d="m 520.44727,289.1377 c 0,21.29145 -17.25965,38.5511 -38.55111,38.5511 -21.29144,0 -38.55108,-17.25965 -38.55108,-38.5511 0,-21.29145 17.25964,-38.55109 38.55108,-38.55109 21.29146,0 38.55111,17.25964 38.55111,38.55109 z" /></g><g
             id="g90"><path
               id="path92"
               style="fill:#000000;fill-opacity:1;fill-rule:nonzero;stroke:#000000;stroke-width:0.3985;stroke-linecap:butt;stroke-linejoin:miter;stroke-miterlimit:10;stroke-dasharray:none;stroke-opacity:1"
               d="m 905.9642,289.1377 c 0,21.29145 -17.25964,38.5511 -38.55108,38.5511 -21.29146,0 -38.55111,-17.25965 -38.55111,-38.5511 0,-21.29145 17.25965,-38.55109 38.55111,-38.55109 21.29144,0 38.55108,17.25964 38.55108,38.55109 z" /></g><g
             id="g94"><path
               id="path96"
               style="fill:#000000;fill-opacity:1;fill-rule:nonzero;stroke:#000000;stroke-width:0.3985;stroke-linecap:butt;stroke-linejoin:miter;stroke-miterlimit:10;stroke-dasharray:none;stroke-opacity:1"
               d="m 1291.4811,289.1377 c 0,21.29145 -17.2596,38.5511 -38.551,38.5511 -21.2915,0 -38.5511,-17.25965 -38.5511,-38.5511 0,-21.29145 17.2596,-38.55109 38.5511,-38.55109 21.2914,0 38.551,17.25964 38.551,38.55109 z" /></g><g
             id="g98"><path
               id="path100"
               style="fill:#000000;fill-opacity:1;fill-rule:nonzero;stroke:#000000;stroke-width:0.3985;stroke-linecap:butt;stroke-linejoin:miter;stroke-miterlimit:10;stroke-dasharray:none;stroke-opacity:1"
               d="m 1676.9981,289.1377 c 0,21.29145 -17.2596,38.5511 -38.5511,38.5511 -21.2914,0 -38.5511,-17.25965 -38.5511,-38.5511 0,-21.29145 17.2597,-38.55109 38.5511,-38.55109 21.2915,0 38.5511,17.25964 38.5511,38.55109 z" /></g><g
             id="g102"><path
               id="path104"
               style="fill:#000000;fill-opacity:1;fill-rule:nonzero;stroke:#000000;stroke-width:0.3985;stroke-linecap:butt;stroke-linejoin:miter;stroke-miterlimit:10;stroke-dasharray:none;stroke-opacity:1"
               d="m 2062.515,289.1377 c 0,21.29145 -17.2596,38.5511 -38.5511,38.5511 -21.2914,0 -38.5511,-17.25965 -38.5511,-38.5511 0,-21.29145 17.2597,-38.55109 38.5511,-38.55109 21.2915,0 38.5511,17.25964 38.5511,38.55109 z" /></g><g
             id="g106"><path
               id="path108"
               style="fill:#000000;fill-opacity:1;fill-rule:nonzero;stroke:#000000;stroke-width:0.3985;stroke-linecap:butt;stroke-linejoin:miter;stroke-miterlimit:10;stroke-dasharray:none;stroke-opacity:1"
               d="m 2448.032,289.1377 c 0,21.29145 -17.2597,38.5511 -38.5511,38.5511 -21.2915,0 -38.5511,-17.25965 -38.5511,-38.5511 0,-21.29145 17.2596,-38.55109 38.5511,-38.55109 21.2914,0 38.5511,17.25964 38.5511,38.55109 z" /></g><g
             id="g110"><path
               id="path112"
               style="fill:#000000;fill-opacity:1;fill-rule:nonzero;stroke:#000000;stroke-width:0.3985;stroke-linecap:butt;stroke-linejoin:miter;stroke-miterlimit:10;stroke-dasharray:none;stroke-opacity:1"
               d="m 327.6888,481.89616 c 0,21.29146 -17.25965,38.55111 -38.5511,38.55111 -21.29145,0 -38.55109,-17.25965 -38.55109,-38.55111 0,-21.29144 17.25964,-38.55108 38.55109,-38.55108 21.29145,0 38.5511,17.25964 38.5511,38.55108 z" /></g><g
             id="g114"><path
               id="path116"
               style="fill:#000000;fill-opacity:1;fill-rule:nonzero;stroke:#000000;stroke-width:0.3985;stroke-linecap:butt;stroke-linejoin:miter;stroke-miterlimit:10;stroke-dasharray:none;stroke-opacity:1"
               d="m 713.20573,481.89616 c 0,21.29146 -17.25964,38.55111 -38.55108,38.55111 -21.29146,0 -38.5511,-17.25965 -38.5511,-38.55111 0,-21.29144 17.25964,-38.55108 38.5511,-38.55108 21.29144,0 38.55108,17.25964 38.55108,38.55108 z" /></g><g
             id="g118"><path
               id="path120"
               style="fill:#000000;fill-opacity:1;fill-rule:nonzero;stroke:#000000;stroke-width:0.3985;stroke-linecap:butt;stroke-linejoin:miter;stroke-miterlimit:10;stroke-dasharray:none;stroke-opacity:1"
               d="m 1098.7227,481.89616 c 0,21.29146 -17.2597,38.55111 -38.5511,38.55111 -21.2915,0 -38.5511,-17.25965 -38.5511,-38.55111 0,-21.29144 17.2596,-38.55108 38.5511,-38.55108 21.2914,0 38.5511,17.25964 38.5511,38.55108 z" /></g><g
             id="g122"><path
               id="path124"
               style="fill:#000000;fill-opacity:1;fill-rule:nonzero;stroke:#000000;stroke-width:0.3985;stroke-linecap:butt;stroke-linejoin:miter;stroke-miterlimit:10;stroke-dasharray:none;stroke-opacity:1"
               d="m 1484.2396,481.89616 c 0,21.29146 -17.2596,38.55111 -38.5511,38.55111 -21.2914,0 -38.5511,-17.25965 -38.5511,-38.55111 0,-21.29144 17.2597,-38.55108 38.5511,-38.55108 21.2915,0 38.5511,17.25964 38.5511,38.55108 z" /></g><g
             id="g126"><path
               id="path128"
               style="fill:#000000;fill-opacity:1;fill-rule:nonzero;stroke:#000000;stroke-width:0.3985;stroke-linecap:butt;stroke-linejoin:miter;stroke-miterlimit:10;stroke-dasharray:none;stroke-opacity:1"
               d="m 1869.7566,481.89616 c 0,21.29146 -17.2597,38.55111 -38.5511,38.55111 -21.2915,0 -38.5511,-17.25965 -38.5511,-38.55111 0,-21.29144 17.2596,-38.55108 38.5511,-38.55108 21.2914,0 38.5511,17.25964 38.5511,38.55108 z" /></g><g
             id="g130"><path
               id="path132"
               style="fill:#000000;fill-opacity:1;fill-rule:nonzero;stroke:#000000;stroke-width:0.3985;stroke-linecap:butt;stroke-linejoin:miter;stroke-miterlimit:10;stroke-dasharray:none;stroke-opacity:1"
               d="m 2255.2735,481.89616 c 0,21.29146 -17.2596,38.55111 -38.5511,38.55111 -21.2914,0 -38.5511,-17.25965 -38.5511,-38.55111 0,-21.29144 17.2597,-38.55108 38.5511,-38.55108 21.2915,0 38.5511,17.25964 38.5511,38.55108 z" /></g><g
             id="g134"><path
               id="path136"
               style="fill:#000000;fill-opacity:1;fill-rule:nonzero;stroke:#000000;stroke-width:0.3985;stroke-linecap:butt;stroke-linejoin:miter;stroke-miterlimit:10;stroke-dasharray:none;stroke-opacity:1"
               d="m 520.44727,674.65465 c 0,21.29144 -17.25965,38.55108 -38.55111,38.55108 -21.29144,0 -38.55108,-17.25964 -38.55108,-38.55108 0,-21.29146 17.25964,-38.5511 38.55108,-38.5511 21.29146,0 38.55111,17.25964 38.55111,38.5511 z" /></g><g
             id="g138"><path
               id="path140"
               style="fill:#000000;fill-opacity:1;fill-rule:nonzero;stroke:#000000;stroke-width:0.3985;stroke-linecap:butt;stroke-linejoin:miter;stroke-miterlimit:10;stroke-dasharray:none;stroke-opacity:1"
               d="m 905.9642,674.65465 c 0,21.29144 -17.25964,38.55108 -38.55108,38.55108 -21.29146,0 -38.55111,-17.25964 -38.55111,-38.55108 0,-21.29146 17.25965,-38.5511 38.55111,-38.5511 21.29144,0 38.55108,17.25964 38.55108,38.5511 z" /></g><g
             id="g142"><path
               id="path144"
               style="fill:#000000;fill-opacity:1;fill-rule:nonzero;stroke:#000000;stroke-width:0.3985;stroke-linecap:butt;stroke-linejoin:miter;stroke-miterlimit:10;stroke-dasharray:none;stroke-opacity:1"
               d="m 1291.4811,674.65465 c 0,21.29144 -17.2596,38.55108 -38.551,38.55108 -21.2915,0 -38.5511,-17.25964 -38.5511,-38.55108 0,-21.29146 17.2596,-38.5511 38.5511,-38.5511 21.2914,0 38.551,17.25964 38.551,38.5511 z" /></g><g
             id="g146"><path
               id="path148"
               style="fill:#000000;fill-opacity:1;fill-rule:nonzero;stroke:#000000;stroke-width:0.3985;stroke-linecap:butt;stroke-linejoin:miter;stroke-miterlimit:10;stroke-dasharray:none;stroke-opacity:1"
               d="m 1676.9981,674.65465 c 0,21.29144 -17.2596,38.55108 -38.5511,38.55108 -21.2914,0 -38.5511,-17.25964 -38.5511,-38.55108 0,-21.29146 17.2597,-38.5511 38.5511,-38.5511 21.2915,0 38.5511,17.25964 38.5511,38.5511 z" /></g><g
             id="g150"><path
               id="path152"
               style="fill:#000000;fill-opacity:1;fill-rule:nonzero;stroke:#000000;stroke-width:0.3985;stroke-linecap:butt;stroke-linejoin:miter;stroke-miterlimit:10;stroke-dasharray:none;stroke-opacity:1"
               d="m 2062.515,674.65465 c 0,21.29144 -17.2596,38.55108 -38.5511,38.55108 -21.2914,0 -38.5511,-17.25964 -38.5511,-38.55108 0,-21.29146 17.2597,-38.5511 38.5511,-38.5511 21.2915,0 38.5511,17.25964 38.5511,38.5511 z" /></g><g
             id="g154"><path
               id="path156"
               style="fill:#000000;fill-opacity:1;fill-rule:nonzero;stroke:#000000;stroke-width:0.3985;stroke-linecap:butt;stroke-linejoin:miter;stroke-miterlimit:10;stroke-dasharray:none;stroke-opacity:1"
               d="m 2448.032,674.65465 c 0,21.29144 -17.2597,38.55108 -38.5511,38.55108 -21.2915,0 -38.5511,-17.25964 -38.5511,-38.55108 0,-21.29146 17.2596,-38.5511 38.5511,-38.5511 21.2914,0 38.5511,17.25964 38.5511,38.5511 z" /></g><g
             id="g158"><path
               id="path160"
               style="fill:#000000;fill-opacity:1;fill-rule:nonzero;stroke:#000000;stroke-width:0.3985;stroke-linecap:butt;stroke-linejoin:miter;stroke-miterlimit:10;stroke-dasharray:none;stroke-opacity:1"
               d="m 327.6888,867.41312 c 0,21.29144 -17.25965,38.55108 -38.5511,38.55108 -21.29145,0 -38.55109,-17.25964 -38.55109,-38.55108 0,-21.29146 17.25964,-38.55111 38.55109,-38.55111 21.29145,0 38.5511,17.25965 38.5511,38.55111 z" /></g><g
             id="g162"><path
               id="path164"
               style="fill:#000000;fill-opacity:1;fill-rule:nonzero;stroke:#000000;stroke-width:0.3985;stroke-linecap:butt;stroke-linejoin:miter;stroke-miterlimit:10;stroke-dasharray:none;stroke-opacity:1"
               d="m 713.20573,867.41312 c 0,21.29144 -17.25964,38.55108 -38.55108,38.55108 -21.29146,0 -38.5511,-17.25964 -38.5511,-38.55108 0,-21.29146 17.25964,-38.55111 38.5511,-38.55111 21.29144,0 38.55108,17.25965 38.55108,38.55111 z" /></g><g
             id="g166"><path
               id="path168"
               style="fill:#000000;fill-opacity:1;fill-rule:nonzero;stroke:#000000;stroke-width:0.3985;stroke-linecap:butt;stroke-linejoin:miter;stroke-miterlimit:10;stroke-dasharray:none;stroke-opacity:1"
               d="m 1098.7227,867.41312 c 0,21.29144 -17.2597,38.55108 -38.5511,38.55108 -21.2915,0 -38.5511,-17.25964 -38.5511,-38.55108 0,-21.29146 17.2596,-38.55111 38.5511,-38.55111 21.2914,0 38.5511,17.25965 38.5511,38.55111 z" /></g><g
             id="g170"><path
               id="path172"
               style="fill:#000000;fill-opacity:1;fill-rule:nonzero;stroke:#000000;stroke-width:0.3985;stroke-linecap:butt;stroke-linejoin:miter;stroke-miterlimit:10;stroke-dasharray:none;stroke-opacity:1"
               d="m 1484.2396,867.41312 c 0,21.29144 -17.2596,38.55108 -38.5511,38.55108 -21.2914,0 -38.5511,-17.25964 -38.5511,-38.55108 0,-21.29146 17.2597,-38.55111 38.5511,-38.55111 21.2915,0 38.5511,17.25965 38.5511,38.55111 z" /></g><g
             id="g174"><path
               id="path176"
               style="fill:#000000;fill-opacity:1;fill-rule:nonzero;stroke:#000000;stroke-width:0.3985;stroke-linecap:butt;stroke-linejoin:miter;stroke-miterlimit:10;stroke-dasharray:none;stroke-opacity:1"
               d="m 1869.7566,867.41312 c 0,21.29144 -17.2597,38.55108 -38.5511,38.55108 -21.2915,0 -38.5511,-17.25964 -38.5511,-38.55108 0,-21.29146 17.2596,-38.55111 38.5511,-38.55111 21.2914,0 38.5511,17.25965 38.5511,38.55111 z" /></g><g
             id="g178"><path
               id="path180"
               style="fill:#000000;fill-opacity:1;fill-rule:nonzero;stroke:#000000;stroke-width:0.3985;stroke-linecap:butt;stroke-linejoin:miter;stroke-miterlimit:10;stroke-dasharray:none;stroke-opacity:1"
               d="m 2255.2735,867.41312 c 0,21.29144 -17.2596,38.55108 -38.5511,38.55108 -21.2914,0 -38.5511,-17.25964 -38.5511,-38.55108 0,-21.29146 17.2597,-38.55111 38.5511,-38.55111 21.2915,0 38.5511,17.25965 38.5511,38.55111 z" /></g><g
             id="g182"><path
               id="path184"
               style="fill:#000000;fill-opacity:1;fill-rule:nonzero;stroke:#000000;stroke-width:0.3985;stroke-linecap:butt;stroke-linejoin:miter;stroke-miterlimit:10;stroke-dasharray:none;stroke-opacity:1"
               d="m 520.44727,1060.1716 c 0,21.2914 -17.25965,38.5511 -38.55111,38.5511 -21.29144,0 -38.55108,-17.2597 -38.55108,-38.5511 0,-21.2915 17.25964,-38.5511 38.55108,-38.5511 21.29146,0 38.55111,17.2596 38.55111,38.5511 z" /></g><g
             id="g186"><path
               id="path188"
               style="fill:#000000;fill-opacity:1;fill-rule:nonzero;stroke:#000000;stroke-width:0.3985;stroke-linecap:butt;stroke-linejoin:miter;stroke-miterlimit:10;stroke-dasharray:none;stroke-opacity:1"
               d="m 905.9642,1060.1716 c 0,21.2914 -17.25964,38.5511 -38.55108,38.5511 -21.29146,0 -38.55111,-17.2597 -38.55111,-38.5511 0,-21.2915 17.25965,-38.5511 38.55111,-38.5511 21.29144,0 38.55108,17.2596 38.55108,38.5511 z" /></g><g
             id="g190"><path
               id="path192"
               style="fill:#000000;fill-opacity:1;fill-rule:nonzero;stroke:#000000;stroke-width:0.3985;stroke-linecap:butt;stroke-linejoin:miter;stroke-miterlimit:10;stroke-dasharray:none;stroke-opacity:1"
               d="m 1291.4811,1060.1716 c 0,21.2914 -17.2596,38.5511 -38.551,38.5511 -21.2915,0 -38.5511,-17.2597 -38.5511,-38.5511 0,-21.2915 17.2596,-38.5511 38.5511,-38.5511 21.2914,0 38.551,17.2596 38.551,38.5511 z" /></g><g
             id="g194"><path
               id="path196"
               style="fill:#000000;fill-opacity:1;fill-rule:nonzero;stroke:#000000;stroke-width:0.3985;stroke-linecap:butt;stroke-linejoin:miter;stroke-miterlimit:10;stroke-dasharray:none;stroke-opacity:1"
               d="m 1676.9981,1060.1716 c 0,21.2914 -17.2596,38.5511 -38.5511,38.5511 -21.2914,0 -38.5511,-17.2597 -38.5511,-38.5511 0,-21.2915 17.2597,-38.5511 38.5511,-38.5511 21.2915,0 38.5511,17.2596 38.5511,38.5511 z" /></g><g
             id="g198"><path
               id="path200"
               style="fill:#000000;fill-opacity:1;fill-rule:nonzero;stroke:#000000;stroke-width:0.3985;stroke-linecap:butt;stroke-linejoin:miter;stroke-miterlimit:10;stroke-dasharray:none;stroke-opacity:1"
               d="m 2062.515,1060.1716 c 0,21.2914 -17.2596,38.5511 -38.5511,38.5511 -21.2914,0 -38.5511,-17.2597 -38.5511,-38.5511 0,-21.2915 17.2597,-38.5511 38.5511,-38.5511 21.2915,0 38.5511,17.2596 38.5511,38.5511 z" /></g><g
             id="g202"><path
               id="path204"
               style="fill:#000000;fill-opacity:1;fill-rule:nonzero;stroke:#000000;stroke-width:0.3985;stroke-linecap:butt;stroke-linejoin:miter;stroke-miterlimit:10;stroke-dasharray:none;stroke-opacity:1"
               d="m 2448.032,1060.1716 c 0,21.2914 -17.2597,38.5511 -38.5511,38.5511 -21.2915,0 -38.5511,-17.2597 -38.5511,-38.5511 0,-21.2915 17.2596,-38.5511 38.5511,-38.5511 21.2914,0 38.5511,17.2596 38.5511,38.5511 z" /></g><g
             id="g206"><path
               id="path208"
               style="fill:#000000;fill-opacity:1;fill-rule:nonzero;stroke:#000000;stroke-width:0.3985;stroke-linecap:butt;stroke-linejoin:miter;stroke-miterlimit:10;stroke-dasharray:none;stroke-opacity:1"
               d="m 327.6888,1252.9301 c 0,21.2914 -17.25965,38.551 -38.5511,38.551 -21.29145,0 -38.55109,-17.2596 -38.55109,-38.551 0,-21.2915 17.25964,-38.5511 38.55109,-38.5511 21.29145,0 38.5511,17.2596 38.5511,38.5511 z" /></g><g
             id="g210"><path
               id="path212"
               style="fill:#000000;fill-opacity:1;fill-rule:nonzero;stroke:#000000;stroke-width:0.3985;stroke-linecap:butt;stroke-linejoin:miter;stroke-miterlimit:10;stroke-dasharray:none;stroke-opacity:1"
               d="m 713.20573,1252.9301 c 0,21.2914 -17.25964,38.551 -38.55108,38.551 -21.29146,0 -38.5511,-17.2596 -38.5511,-38.551 0,-21.2915 17.25964,-38.5511 38.5511,-38.5511 21.29144,0 38.55108,17.2596 38.55108,38.5511 z" /></g><g
             id="g214"><path
               id="path216"
               style="fill:#000000;fill-opacity:1;fill-rule:nonzero;stroke:#000000;stroke-width:0.3985;stroke-linecap:butt;stroke-linejoin:miter;stroke-miterlimit:10;stroke-dasharray:none;stroke-opacity:1"
               d="m 1098.7227,1252.9301 c 0,21.2914 -17.2597,38.551 -38.5511,38.551 -21.2915,0 -38.5511,-17.2596 -38.5511,-38.551 0,-21.2915 17.2596,-38.5511 38.5511,-38.5511 21.2914,0 38.5511,17.2596 38.5511,38.5511 z" /></g><g
             id="g218"><path
               id="path220"
               style="fill:#000000;fill-opacity:1;fill-rule:nonzero;stroke:#000000;stroke-width:0.3985;stroke-linecap:butt;stroke-linejoin:miter;stroke-miterlimit:10;stroke-dasharray:none;stroke-opacity:1"
               d="m 1484.2396,1252.9301 c 0,21.2914 -17.2596,38.551 -38.5511,38.551 -21.2914,0 -38.5511,-17.2596 -38.5511,-38.551 0,-21.2915 17.2597,-38.5511 38.5511,-38.5511 21.2915,0 38.5511,17.2596 38.5511,38.5511 z" /></g><g
             id="g222"><path
               id="path224"
               style="fill:#000000;fill-opacity:1;fill-rule:nonzero;stroke:#000000;stroke-width:0.3985;stroke-linecap:butt;stroke-linejoin:miter;stroke-miterlimit:10;stroke-dasharray:none;stroke-opacity:1"
               d="m 1869.7566,1252.9301 c 0,21.2914 -17.2597,38.551 -38.5511,38.551 -21.2915,0 -38.5511,-17.2596 -38.5511,-38.551 0,-21.2915 17.2596,-38.5511 38.5511,-38.5511 21.2914,0 38.5511,17.2596 38.5511,38.5511 z" /></g><g
             id="g226"><path
               id="path228"
               style="fill:#000000;fill-opacity:1;fill-rule:nonzero;stroke:#000000;stroke-width:0.3985;stroke-linecap:butt;stroke-linejoin:miter;stroke-miterlimit:10;stroke-dasharray:none;stroke-opacity:1"
               d="m 2255.2735,1252.9301 c 0,21.2914 -17.2596,38.551 -38.5511,38.551 -21.2914,0 -38.5511,-17.2596 -38.5511,-38.551 0,-21.2915 17.2597,-38.5511 38.5511,-38.5511 21.2915,0 38.5511,17.2596 38.5511,38.5511 z" /></g><g
             id="g230"><path
               id="path232"
               style="fill:#000000;fill-opacity:1;fill-rule:nonzero;stroke:#000000;stroke-width:0.3985;stroke-linecap:butt;stroke-linejoin:miter;stroke-miterlimit:10;stroke-dasharray:none;stroke-opacity:1"
               d="m 520.44727,1445.6885 c 0,21.2915 -17.25965,38.5511 -38.55111,38.5511 -21.29144,0 -38.55108,-17.2596 -38.55108,-38.5511 0,-21.2914 17.25964,-38.5511 38.55108,-38.5511 21.29146,0 38.55111,17.2597 38.55111,38.5511 z" /></g><g
             id="g234"><path
               id="path236"
               style="fill:#000000;fill-opacity:1;fill-rule:nonzero;stroke:#000000;stroke-width:0.3985;stroke-linecap:butt;stroke-linejoin:miter;stroke-miterlimit:10;stroke-dasharray:none;stroke-opacity:1"
               d="m 905.9642,1445.6885 c 0,21.2915 -17.25964,38.5511 -38.55108,38.5511 -21.29146,0 -38.55111,-17.2596 -38.55111,-38.5511 0,-21.2914 17.25965,-38.5511 38.55111,-38.5511 21.29144,0 38.55108,17.2597 38.55108,38.5511 z" /></g><g
             id="g238"><path
               id="path240"
               style="fill:#000000;fill-opacity:1;fill-rule:nonzero;stroke:#000000;stroke-width:0.3985;stroke-linecap:butt;stroke-linejoin:miter;stroke-miterlimit:10;stroke-dasharray:none;stroke-opacity:1"
               d="m 1291.4811,1445.6885 c 0,21.2915 -17.2596,38.5511 -38.551,38.5511 -21.2915,0 -38.5511,-17.2596 -38.5511,-38.5511 0,-21.2914 17.2596,-38.5511 38.5511,-38.5511 21.2914,0 38.551,17.2597 38.551,38.5511 z" /></g><g
             id="g242"><path
               id="path244"
               style="fill:#000000;fill-opacity:1;fill-rule:nonzero;stroke:#000000;stroke-width:0.3985;stroke-linecap:butt;stroke-linejoin:miter;stroke-miterlimit:10;stroke-dasharray:none;stroke-opacity:1"
               d="m 1676.9981,1445.6885 c 0,21.2915 -17.2596,38.5511 -38.5511,38.5511 -21.2914,0 -38.5511,-17.2596 -38.5511,-38.5511 0,-21.2914 17.2597,-38.5511 38.5511,-38.5511 21.2915,0 38.5511,17.2597 38.5511,38.5511 z" /></g><g
             id="g246"><path
               id="path248"
               style="fill:#000000;fill-opacity:1;fill-rule:nonzero;stroke:#000000;stroke-width:0.3985;stroke-linecap:butt;stroke-linejoin:miter;stroke-miterlimit:10;stroke-dasharray:none;stroke-opacity:1"
               d="m 2062.515,1445.6885 c 0,21.2915 -17.2596,38.5511 -38.5511,38.5511 -21.2914,0 -38.5511,-17.2596 -38.5511,-38.5511 0,-21.2914 17.2597,-38.5511 38.5511,-38.5511 21.2915,0 38.5511,17.2597 38.5511,38.5511 z" /></g><g
             id="g250"><path
               id="path252"
               style="fill:#000000;fill-opacity:1;fill-rule:nonzero;stroke:#000000;stroke-width:0.3985;stroke-linecap:butt;stroke-linejoin:miter;stroke-miterlimit:10;stroke-dasharray:none;stroke-opacity:1"
               d="m 2448.032,1445.6885 c 0,21.2915 -17.2597,38.5511 -38.5511,38.5511 -21.2915,0 -38.5511,-17.2596 -38.5511,-38.5511 0,-21.2914 17.2596,-38.5511 38.5511,-38.5511 21.2914,0 38.5511,17.2597 38.5511,38.5511 z" /></g><g
             id="g254"><path
               id="path256"
               style="fill:#000000;fill-opacity:1;fill-rule:nonzero;stroke:#000000;stroke-width:0.3985;stroke-linecap:butt;stroke-linejoin:miter;stroke-miterlimit:10;stroke-dasharray:none;stroke-opacity:1"
               d="m 327.6888,1638.447 c 0,21.2915 -17.25965,38.5511 -38.5511,38.5511 -21.29145,0 -38.55109,-17.2596 -38.55109,-38.5511 0,-21.2914 17.25964,-38.5511 38.55109,-38.5511 21.29145,0 38.5511,17.2597 38.5511,38.5511 z" /></g><g
             id="g258"><path
               id="path260"
               style="fill:#000000;fill-opacity:1;fill-rule:nonzero;stroke:#000000;stroke-width:0.3985;stroke-linecap:butt;stroke-linejoin:miter;stroke-miterlimit:10;stroke-dasharray:none;stroke-opacity:1"
               d="m 713.20573,1638.447 c 0,21.2915 -17.25964,38.5511 -38.55108,38.5511 -21.29146,0 -38.5511,-17.2596 -38.5511,-38.5511 0,-21.2914 17.25964,-38.5511 38.5511,-38.5511 21.29144,0 38.55108,17.2597 38.55108,38.5511 z" /></g><g
             id="g262"><path
               id="path264"
               style="fill:#000000;fill-opacity:1;fill-rule:nonzero;stroke:#000000;stroke-width:0.3985;stroke-linecap:butt;stroke-linejoin:miter;stroke-miterlimit:10;stroke-dasharray:none;stroke-opacity:1"
               d="m 1098.7227,1638.447 c 0,21.2915 -17.2597,38.5511 -38.5511,38.5511 -21.2915,0 -38.5511,-17.2596 -38.5511,-38.5511 0,-21.2914 17.2596,-38.5511 38.5511,-38.5511 21.2914,0 38.5511,17.2597 38.5511,38.5511 z" /></g><g
             id="g266"><path
               id="path268"
               style="fill:#000000;fill-opacity:1;fill-rule:nonzero;stroke:#000000;stroke-width:0.3985;stroke-linecap:butt;stroke-linejoin:miter;stroke-miterlimit:10;stroke-dasharray:none;stroke-opacity:1"
               d="m 1484.2396,1638.447 c 0,21.2915 -17.2596,38.5511 -38.5511,38.5511 -21.2914,0 -38.5511,-17.2596 -38.5511,-38.5511 0,-21.2914 17.2597,-38.5511 38.5511,-38.5511 21.2915,0 38.5511,17.2597 38.5511,38.5511 z" /></g><g
             id="g270"><path
               id="path272"
               style="fill:#000000;fill-opacity:1;fill-rule:nonzero;stroke:#000000;stroke-width:0.3985;stroke-linecap:butt;stroke-linejoin:miter;stroke-miterlimit:10;stroke-dasharray:none;stroke-opacity:1"
               d="m 1869.7566,1638.447 c 0,21.2915 -17.2597,38.5511 -38.5511,38.5511 -21.2915,0 -38.5511,-17.2596 -38.5511,-38.5511 0,-21.2914 17.2596,-38.5511 38.5511,-38.5511 21.2914,0 38.5511,17.2597 38.5511,38.5511 z" /></g><g
             id="g274"><path
               id="path276"
               style="fill:#000000;fill-opacity:1;fill-rule:nonzero;stroke:#000000;stroke-width:0.3985;stroke-linecap:butt;stroke-linejoin:miter;stroke-miterlimit:10;stroke-dasharray:none;stroke-opacity:1"
               d="m 2255.2735,1638.447 c 0,21.2915 -17.2596,38.5511 -38.5511,38.5511 -21.2914,0 -38.5511,-17.2596 -38.5511,-38.5511 0,-21.2914 17.2597,-38.5511 38.5511,-38.5511 21.2915,0 38.5511,17.2597 38.5511,38.5511 z" /></g></g><g
           id="g278"><path
             id="path280"
             style="fill:#000000;fill-opacity:1;fill-rule:nonzero;stroke:none"
             d="M 0,0 V 19.27701 H 19.27701 V 0 Z" /></g><g
           id="g282"><path
             id="path284"
             style="fill:#000000;fill-opacity:1;fill-rule:nonzero;stroke:none"
             d="m 0,1908.3077 v 19.277 h 19.27701 v -19.277 z" /></g><g
           id="g286"><path
             id="path288"
             style="fill:#000000;fill-opacity:1;fill-rule:nonzero;stroke:none"
             d="m 2679.3416,1908.3077 v 19.277 h 19.277 v -19.277 z" /></g><g
           id="g290"><path
             id="path292"
             style="fill:#000000;fill-opacity:1;fill-rule:nonzero;stroke:none"
             d="m 2679.3416,0 v 19.27701 h 19.277 V 0 Z" /></g></g></g></g></svg>